<svg width="44" height="43" viewBox="0 0 44 43" fill="none" xmlns="http://www.w3.org/2000/svg">
  <path fill-rule="evenodd" clip-rule="evenodd" d="M21.6697 1.04883C10.1804 1.04883 0.874634 10.3546 0.874634 21.8439C0.874634 31.0458 6.82723 38.8179 15.0933 41.5733C16.133 41.7553 16.523 41.1314 16.523 40.5855C16.523 40.0916 16.497 38.454 16.497 36.7124C11.2722 37.6742 9.92051 35.4387 9.5046 34.269C9.27066 33.6712 8.2569 31.8256 7.37311 31.3317C6.64528 30.9418 5.60552 29.98 7.34711 29.954C8.98473 29.928 10.1545 31.4617 10.5444 32.0855C12.4159 35.2308 15.4052 34.347 16.6009 33.8011C16.7829 32.4494 17.3288 31.5397 17.9266 31.0198C13.2997 30.4999 8.46485 28.7063 8.46485 20.7522C8.46485 18.4907 9.27066 16.6192 10.5963 15.1635C10.3884 14.6436 9.66057 12.5121 10.8043 9.6528C10.8043 9.6528 12.5459 9.10693 16.523 11.7843C18.1866 11.3164 19.9541 11.0825 21.7217 11.0825C23.4893 11.0825 25.2569 11.3164 26.9205 11.7843C30.8976 9.08094 32.6392 9.6528 32.6392 9.6528C33.7829 12.5121 33.0551 14.6436 32.8471 15.1635C34.1728 16.6192 34.9786 18.4647 34.9786 20.7522C34.9786 28.7323 30.1178 30.4999 25.4908 31.0198C26.2447 31.6696 26.8945 32.9173 26.8945 34.8669C26.8945 37.6482 26.8685 39.8837 26.8685 40.5855C26.8685 41.1314 27.2584 41.7812 28.2982 41.5733C32.4264 40.1797 36.0136 37.5265 38.555 33.9873C41.0963 30.4481 42.4637 26.201 42.4649 21.8439C42.4649 10.3546 33.159 1.04883 21.6697 1.04883Z" stroke="white" stroke-width="1.55963" stroke-linejoin="round"/>
</svg>
