<svg width="44" height="42" viewBox="0 0 44 42" fill="none" xmlns="http://www.w3.org/2000/svg">
<path d="M42.7584 4.69409V40.1681C42.7584 40.9792 42.4362 41.757 41.8627 42.3305C41.2892 42.904 40.5114 43.2262 39.7003 43.2262H4.22632C3.41526 43.2262 2.63742 42.904 2.06391 42.3305C1.49041 41.757 1.16821 40.9792 1.16821 40.1681L1.16821 4.69409C1.16821 3.88303 1.49041 3.10519 2.06391 2.53168C2.63742 1.95818 3.41526 1.63599 4.22632 1.63599L39.7003 1.63599C40.5114 1.63599 41.2892 1.95818 41.8627 2.53168C42.4362 3.10519 42.7584 3.88303 42.7584 4.69409V4.69409ZM13.4006 17.5381H7.28442V37.11H13.4006V17.5381ZM13.9511 10.8103C13.9543 10.3477 13.8664 9.88891 13.6923 9.46025C13.5182 9.0316 13.2614 8.64143 12.9366 8.31202C12.6117 7.98261 12.2251 7.72041 11.7989 7.54041C11.3727 7.3604 10.9153 7.2661 10.4526 7.2629H10.3425C9.4017 7.2629 8.4994 7.63664 7.83413 8.30191C7.16887 8.96717 6.79512 9.86947 6.79512 10.8103C6.79512 11.7511 7.16887 12.6534 7.83413 13.3187C8.4994 13.984 9.4017 14.3577 10.3425 14.3577V14.3577C10.8052 14.3691 11.2656 14.2892 11.6974 14.1226C12.1292 13.956 12.5239 13.7059 12.859 13.3867C13.1941 13.0675 13.463 12.6854 13.6504 12.2622C13.8378 11.839 13.94 11.3831 13.9511 10.9204V10.8103ZM36.6422 25.2201C36.6422 19.3363 32.8991 17.0488 29.1804 17.0488C27.9629 16.9879 26.7506 17.2472 25.6646 17.801C24.5785 18.3547 23.6566 19.1836 22.9908 20.2048H22.8196V17.5381H17.0704V37.11H23.1866V26.7002C23.0982 25.6341 23.434 24.5761 24.1211 23.7561C24.8082 22.9362 25.7911 22.4205 26.8563 22.321H27.0887C29.0337 22.321 30.4771 23.5442 30.4771 26.6268V37.11H36.5933L36.6422 25.2201Z" stroke="white" stroke-width="1.55963" stroke-linejoin="round"/>
</svg>
