<svg width="1720" height="1111" viewBox="0 0 1720 1111" fill="none" xmlns="http://www.w3.org/2000/svg">
<circle cx="693.925" cy="946.488" r="2.5" fill="#D9D9D9" fill-opacity="0.2"/>
<circle cx="353.369" cy="158.285" r="1" fill="#D9D9D9" fill-opacity="0.2"/>
<circle cx="1548.7" cy="900.134" r="1" fill="#D9D9D9" fill-opacity="0.2"/>
<circle cx="866.629" cy="991.668" r="1" fill="#D9D9D9" fill-opacity="0.2"/>
<circle cx="1529.45" cy="737.658" r="1" fill="#D9D9D9"/>
<circle cx="950.445" cy="262.678" r="1" fill="#D9D9D9" fill-opacity="0.2"/>
<circle cx="126.39" cy="798.948" r="1" fill="#D9D9D9"/>
<circle cx="177.852" cy="977.753" r="1" fill="#D9D9D9"/>
<circle cx="1477.1" cy="641.467" r="1" fill="#D9D9D9" fill-opacity="0.2"/>
<circle cx="866.361" cy="820.118" r="1" fill="#D9D9D9" fill-opacity="0.2"/>
<circle cx="884.849" cy="231.605" r="1" fill="#D9D9D9"/>
<circle cx="746.462" cy="319.374" r="1" fill="#D9D9D9" fill-opacity="0.2"/>
<circle cx="1363.38" cy="1034.75" r="1" fill="#808080"/>
<circle cx="328.763" cy="367.031" r="1" fill="#D9D9D9" fill-opacity="0.2"/>
<circle cx="1471.88" cy="115.651" r="1" fill="#D9D9D9"/>
<circle cx="1204.44" cy="120.787" r="1" fill="#D9D9D9"/>
<circle cx="1628.48" cy="524.214" r="1" fill="#D9D9D9" fill-opacity="0.2"/>
<circle cx="937.275" cy="526.367" r="1" fill="#D9D9D9" fill-opacity="0.2"/>
<circle cx="1092.69" cy="355.902" r="1" fill="#D9D9D9"/>
<circle cx="965.444" cy="853.489" r="1" fill="#D9D9D9" fill-opacity="0.2"/>
<circle cx="336.24" cy="44.7039" r="1" fill="#D9D9D9" fill-opacity="0.2"/>
<circle cx="1604.39" cy="1018.83" r="1" fill="#D9D9D9"/>
<circle cx="562.903" cy="208.465" r="1" fill="#D9D9D9"/>
<circle cx="1553.8" cy="509.525" r="1" fill="#D9D9D9" fill-opacity="0.2"/>
<circle cx="1251.48" cy="712.034" r="1" fill="#D9D9D9" fill-opacity="0.2"/>
<circle cx="209.466" cy="975.024" r="1" fill="#D9D9D9" fill-opacity="0.2"/>
<circle cx="929.479" cy="584.939" r="1" fill="#808080"/>
<circle cx="1414.85" cy="403.131" r="1" fill="#D9D9D9" fill-opacity="0.2"/>
<circle cx="336.008" cy="451.215" r="1" fill="#D9D9D9" fill-opacity="0.2"/>
<circle cx="304.379" cy="788.082" r="1" fill="#D9D9D9" fill-opacity="0.2"/>
<circle cx="1351.31" cy="970.9" r="1" fill="#D9D9D9" fill-opacity="0.2"/>
<circle cx="1591.85" cy="11.6943" r="1" fill="#808080"/>
<circle cx="1198" cy="614.861" r="1" fill="#D9D9D9" fill-opacity="0.2"/>
<circle cx="1130.72" cy="542.478" r="1" fill="#D9D9D9"/>
<circle cx="1095.53" cy="731.273" r="1" fill="#D9D9D9" fill-opacity="0.2"/>
<circle cx="286.964" cy="27.2009" r="1" fill="#D9D9D9" fill-opacity="0.2"/>
<circle cx="1451.06" cy="892.117" r="1" fill="#D9D9D9" fill-opacity="0.2"/>
<circle cx="551.695" cy="747.879" r="1" fill="#D9D9D9" fill-opacity="0.2"/>
<circle cx="1017.28" cy="587.59" r="1" fill="#D9D9D9" fill-opacity="0.2"/>
<circle cx="1520.07" cy="212.539" r="1" fill="#D9D9D9" fill-opacity="0.2"/>
<circle cx="1529.91" cy="787.243" r="1" fill="#D9D9D9" fill-opacity="0.2"/>
<circle cx="112.784" cy="417.578" r="1" fill="#D9D9D9" fill-opacity="0.2"/>
<circle cx="287.906" cy="711.236" r="1" fill="#D9D9D9"/>
<circle cx="497.77" cy="542.15" r="1" fill="#D9D9D9" fill-opacity="0.2"/>
<circle cx="159.183" cy="988.232" r="1" fill="#D9D9D9" fill-opacity="0.2"/>
<circle cx="958.755" cy="47.6799" r="1" fill="#D9D9D9" fill-opacity="0.2"/>
<circle cx="841.417" cy="330.879" r="1" fill="#D9D9D9"/>
<circle cx="1220.84" cy="540.829" r="1" fill="#D9D9D9" fill-opacity="0.2"/>
<circle cx="184.255" cy="1011.51" r="1" fill="#D9D9D9" fill-opacity="0.2"/>
<circle cx="155.913" cy="267.439" r="1" fill="#D9D9D9"/>
<circle cx="1500.48" cy="394.203" r="1" fill="#808080"/>
<circle cx="1001.36" cy="1.30957" r="1" fill="#D9D9D9" fill-opacity="0.2"/>
<circle cx="624.406" cy="686.03" r="1" fill="#D9D9D9" fill-opacity="0.2"/>
<circle cx="1577.16" cy="184.971" r="1" fill="#D9D9D9" fill-opacity="0.2"/>
<circle cx="1429.52" cy="197.71" r="1" fill="#D9D9D9" fill-opacity="0.2"/>
<circle cx="1100.56" cy="666.837" r="1" fill="#D9D9D9" fill-opacity="0.2"/>
<circle cx="384.517" cy="522.222" r="1" fill="#D9D9D9" fill-opacity="0.2"/>
<circle cx="514.113" cy="31.334" r="1" fill="#808080"/>
<circle cx="893.228" cy="472.465" r="1" fill="#D9D9D9" fill-opacity="0.2"/>
<circle cx="451.047" cy="163.021" r="1" fill="#D9D9D9" fill-opacity="0.2"/>
<circle cx="1324.86" cy="26.7246" r="1" fill="#D9D9D9" fill-opacity="0.2"/>
<circle cx="737.19" cy="777.635" r="1" fill="#D9D9D9" fill-opacity="0.2"/>
<circle cx="213.495" cy="242.777" r="1" fill="#808080"/>
<circle cx="355.354" cy="756.953" r="1" fill="#D9D9D9" fill-opacity="0.2"/>
<circle cx="593.618" cy="796.016" r="1" fill="#D9D9D9" fill-opacity="0.2"/>
<circle cx="1326.53" cy="194.907" r="1" fill="#D9D9D9" fill-opacity="0.2"/>
<circle cx="1043.07" cy="771.194" r="1" fill="#D9D9D9" fill-opacity="0.2"/>
<circle cx="1672.48" cy="956.314" r="1" fill="#D9D9D9" fill-opacity="0.2"/>
<circle cx="1362.36" cy="102.642" r="1" fill="#D9D9D9" fill-opacity="0.2"/>
<circle cx="1356.08" cy="746.303" r="1" fill="#D9D9D9"/>
<circle cx="228.631" cy="144.732" r="1" fill="#D9D9D9"/>
<circle cx="1714.66" cy="188.512" r="1" fill="#D9D9D9"/>
<circle cx="872.38" cy="392.685" r="1" fill="#D9D9D9"/>
<circle cx="1337.75" cy="286.558" r="1" fill="#D9D9D9" fill-opacity="0.2"/>
<circle cx="1256.32" cy="727.76" r="1" fill="#D9D9D9" fill-opacity="0.2"/>
<circle cx="1598.94" cy="5.41138" r="1" fill="#D9D9D9" fill-opacity="0.2"/>
<circle cx="827.647" cy="229.566" r="1" fill="#D9D9D9" fill-opacity="0.2"/>
<circle cx="1367.15" cy="1024.36" r="1" fill="#D9D9D9"/>
<circle cx="1550.28" cy="623.872" r="1" fill="#D9D9D9" fill-opacity="0.2"/>
<circle cx="1618.45" cy="531.417" r="1" fill="#D9D9D9"/>
<circle cx="848.438" cy="482.256" r="1" fill="#D9D9D9" fill-opacity="0.2"/>
<circle cx="1694.61" cy="1084.35" r="1" fill="#D9D9D9" fill-opacity="0.2"/>
<circle cx="1355.11" cy="293.316" r="2.5" fill="#D9D9D9" fill-opacity="0.2"/>
<circle cx="1300.23" cy="275.2" r="2.5" fill="#D9D9D9" fill-opacity="0.2"/>
<circle cx="640.083" cy="290.325" r="2.5" fill="#D9D9D9"/>
<circle cx="1641.35" cy="632.875" r="2.5" fill="#D9D9D9" fill-opacity="0.2"/>
<circle cx="1579.75" cy="922.794" r="2.5" fill="#D9D9D9" fill-opacity="0.2"/>
<circle cx="306.331" cy="1030.53" r="2.5" fill="#D9D9D9" fill-opacity="0.2"/>
<circle cx="1163.16" cy="69.4609" r="2.5" fill="#D9D9D9"/>
<circle cx="810.936" cy="794.613" r="2.5" fill="#D9D9D9" fill-opacity="0.2"/>
<circle cx="690.029" cy="126.215" r="2.5" fill="#D9D9D9" fill-opacity="0.2"/>
<circle cx="335.848" cy="431.209" r="2.5" fill="#D9D9D9" fill-opacity="0.2"/>
<circle cx="117.362" cy="127.409" r="2.5" fill="#D9D9D9"/>
<circle cx="389.137" cy="240.675" r="2.5" fill="#D9D9D9" fill-opacity="0.2"/>
<circle cx="1320.83" cy="773.698" r="2.5" fill="#D9D9D9"/>
<circle cx="271.157" cy="462.819" r="2.5" fill="#D9D9D9" fill-opacity="0.2"/>
<circle cx="450.023" cy="655.142" r="2.5" fill="#D9D9D9" fill-opacity="0.2"/>
<circle cx="1369.61" cy="115.573" r="2.5" fill="#D9D9D9" fill-opacity="0.2"/>
<circle cx="85.0659" cy="131.95" r="2.5" fill="#D9D9D9" fill-opacity="0.2"/>
<circle cx="977.116" cy="703.061" r="2.5" fill="#D9D9D9"/>
<circle cx="818.636" cy="1108.13" r="2.5" fill="#D9D9D9" fill-opacity="0.2"/>
<circle cx="1581.15" cy="1030.55" r="2.5" fill="#D9D9D9" fill-opacity="0.2"/>
<circle cx="1241.12" cy="712.313" r="2.5" fill="#D9D9D9" fill-opacity="0.2"/>
<circle cx="1601.57" cy="321.804" r="2.5" fill="#D9D9D9" fill-opacity="0.2"/>
<circle cx="1204.82" cy="114.092" r="2.5" fill="#D9D9D9" fill-opacity="0.2"/>
<circle cx="352.123" cy="282.012" r="2.5" fill="#D9D9D9" fill-opacity="0.2"/>
<circle cx="2.57837" cy="111.473" r="2.5" fill="#D9D9D9" fill-opacity="0.2"/>
<circle cx="3.53418" cy="891.691" r="2.5" fill="#D9D9D9" fill-opacity="0.2"/>
<circle cx="683.522" cy="68.9121" r="2.5" fill="#D9D9D9" fill-opacity="0.2"/>
<circle cx="1412.55" cy="147.674" r="2.5" fill="#D9D9D9" fill-opacity="0.2"/>
<circle cx="1524.63" cy="693.258" r="2.5" fill="#D9D9D9" fill-opacity="0.2"/>
<circle cx="607.466" cy="1086.15" r="2.5" fill="#D9D9D9" fill-opacity="0.2"/>
<circle cx="139.878" cy="155.461" r="2.5" fill="#D9D9D9"/>
<circle cx="831.521" cy="570.033" r="2.5" fill="#D9D9D9" fill-opacity="0.2"/>
<circle cx="536.884" cy="777.259" r="2.5" fill="#D9D9D9" fill-opacity="0.2"/>
<circle cx="1615.09" cy="154.791" r="2.5" fill="#D9D9D9" fill-opacity="0.2"/>
<circle cx="1679.32" cy="445.64" r="2.5" fill="#D9D9D9"/>
<circle cx="505.984" cy="478.552" r="2.5" fill="#D9D9D9" fill-opacity="0.2"/>
<circle cx="625.9" cy="425.794" r="2.5" fill="#D9D9D9"/>
<circle cx="444.832" cy="492.06" r="2.5" fill="#D9D9D9" fill-opacity="0.2"/>
<circle cx="1717.41" cy="814.217" r="2.5" fill="#D9D9D9" fill-opacity="0.2"/>
<circle cx="479.704" cy="497.879" r="2.5" fill="#D9D9D9" fill-opacity="0.2"/>
<circle cx="797.951" cy="962.524" r="2.5" fill="#D9D9D9"/>
<circle cx="261.84" cy="227.032" r="2.5" fill="#D9D9D9" fill-opacity="0.2"/>
<circle cx="1594.68" cy="216.158" r="2.5" fill="#808080"/>
<circle cx="1232.74" cy="161.192" r="2.5" fill="#D9D9D9" fill-opacity="0.2"/>
<circle cx="1512.23" cy="132.235" r="2.5" fill="#D9D9D9" fill-opacity="0.2"/>
<circle cx="614.692" cy="105.643" r="2.5" fill="#D9D9D9" fill-opacity="0.2"/>
<circle cx="36.1182" cy="930.331" r="2.5" fill="#D9D9D9" fill-opacity="0.2"/>
<circle cx="1669.78" cy="1002.46" r="2.5" fill="#D9D9D9" fill-opacity="0.2"/>
<circle cx="801.952" cy="789.324" r="2.5" fill="#D9D9D9" fill-opacity="0.2"/>
<circle cx="968.533" cy="124.84" r="2.5" fill="#D9D9D9" fill-opacity="0.2"/>
<circle cx="1149.56" cy="518.638" r="2.5" fill="#D9D9D9" fill-opacity="0.2"/>
<circle cx="1365.48" cy="202.716" r="2.5" fill="#D9D9D9" fill-opacity="0.2"/>
<circle cx="1456.93" cy="1005.13" r="2.5" fill="#D9D9D9" fill-opacity="0.2"/>
<circle cx="124.51" cy="1080.37" r="2.5" fill="#D9D9D9" fill-opacity="0.2"/>
<circle cx="130.762" cy="564.624" r="2.5" fill="#D9D9D9" fill-opacity="0.2"/>
<circle cx="714.904" cy="154.926" r="2.5" fill="#D9D9D9" fill-opacity="0.2"/>
<circle cx="282.282" cy="1094.04" r="2.5" fill="#D9D9D9" fill-opacity="0.2"/>
<circle cx="426.387" cy="296.531" r="2.5" fill="#D9D9D9" fill-opacity="0.2"/>
<circle cx="1053.86" cy="1026.79" r="2.5" fill="#D9D9D9" fill-opacity="0.2"/>
<circle cx="1577.94" cy="1088.68" r="2.5" fill="#D9D9D9" fill-opacity="0.2"/>
<circle cx="969.15" cy="758.593" r="2.5" fill="#D9D9D9" fill-opacity="0.2"/>
<circle cx="357.11" cy="383.253" r="2.5" fill="#D9D9D9" fill-opacity="0.2"/>
<circle cx="1632.79" cy="484.193" r="2.5" fill="#D9D9D9" fill-opacity="0.2"/>
<circle cx="23.2942" cy="594.712" r="2.5" fill="#D9D9D9" fill-opacity="0.2"/>
<circle cx="85.2185" cy="952.188" r="2.5" fill="#D9D9D9" fill-opacity="0.2"/>
<circle cx="1209.52" cy="684.923" r="2.5" fill="#D9D9D9"/>
<circle cx="154.125" cy="21.9556" r="2.5" fill="#D9D9D9" fill-opacity="0.2"/>
<circle cx="1225.78" cy="409.191" r="2.5" fill="#D9D9D9"/>
<circle cx="569.166" cy="834.371" r="2.5" fill="#D9D9D9" fill-opacity="0.2"/>
<circle cx="898.871" cy="1061.24" r="2.5" fill="#D9D9D9" fill-opacity="0.2"/>
<circle cx="1357" cy="1104.41" r="2.5" fill="#D9D9D9" fill-opacity="0.2"/>
<circle cx="1551.45" cy="393.704" r="2.5" fill="#D9D9D9"/>
<circle cx="168.099" cy="653.979" r="2.5" fill="#D9D9D9" fill-opacity="0.2"/>
<circle cx="1627.93" cy="1022.25" r="2.5" fill="#D9D9D9" fill-opacity="0.2"/>
<circle cx="667.805" cy="707.204" r="2.5" fill="#D9D9D9" fill-opacity="0.2"/>
<circle cx="757.927" cy="9.04077" r="2.5" fill="#D9D9D9" fill-opacity="0.2"/>
<circle cx="1425" cy="234.194" r="2.5" fill="#D9D9D9" fill-opacity="0.2"/>
<circle cx="660.979" cy="766.806" r="2.5" fill="#D9D9D9" fill-opacity="0.2"/>
<circle cx="368.396" cy="875.418" r="2.5" fill="#D9D9D9" fill-opacity="0.2"/>
<circle cx="329.822" cy="170.543" r="2.5" fill="#D9D9D9" fill-opacity="0.2"/>
<circle cx="172.152" cy="396.329" r="2.5" fill="#D9D9D9"/>
<circle cx="746.122" cy="1036.01" r="2.5" fill="#D9D9D9" fill-opacity="0.2"/>
<circle cx="1436.52" cy="741.56" r="2.5" fill="#D9D9D9" fill-opacity="0.2"/>
<circle cx="1131.85" cy="701.534" r="2.5" fill="#D9D9D9" fill-opacity="0.2"/>
<circle cx="6.52063" cy="754.885" r="2.5" fill="#D9D9D9" fill-opacity="0.2"/>
<circle cx="1213.87" cy="367.093" r="2.5" fill="#D9D9D9" fill-opacity="0.2"/>
<circle cx="1667.65" cy="371.086" r="2.5" fill="#D9D9D9" fill-opacity="0.2"/>
<circle cx="1294.24" cy="79.9426" r="2.5" fill="#D9D9D9" fill-opacity="0.2"/>
<circle cx="682.219" cy="850.726" r="2.5" fill="#D9D9D9" fill-opacity="0.2"/>
<circle cx="744.199" cy="43.9011" r="2.5" fill="#D9D9D9" fill-opacity="0.2"/>
<circle cx="151.479" cy="1020.93" r="2.5" fill="#D9D9D9" fill-opacity="0.2"/>
<circle cx="1012.35" cy="762.533" r="2.5" fill="#808080"/>
<circle cx="1571.09" cy="637.702" r="2.5" fill="#D9D9D9" fill-opacity="0.2"/>
<circle cx="1657.96" cy="852.327" r="2.5" fill="#D9D9D9"/>
<circle cx="129.962" cy="214.708" r="2.5" fill="#D9D9D9" fill-opacity="0.2"/>
<circle cx="635.781" cy="968.836" r="2.5" fill="#D9D9D9" fill-opacity="0.2"/>
<circle cx="813.906" cy="546.523" r="2.5" fill="#D9D9D9"/>
<path d="M795.004 754.531L795.534 756.5L797.504 757.031L795.534 757.561L795.004 759.531L794.474 757.561L792.504 757.031L794.474 756.5L795.004 754.531Z" fill="#D9D9D9" fill-opacity="0.2"/>
<path d="M892.524 233.765L893.055 235.735L895.024 236.265L893.055 236.796L892.524 238.765L891.994 236.796L890.024 236.265L891.994 235.735L892.524 233.765Z" fill="#D9D9D9"/>
<path d="M860.507 358.437L861.037 360.407L863.007 360.937L861.037 361.467L860.507 363.437L859.977 361.467L858.007 360.937L859.977 360.407L860.507 358.437Z" fill="#D9D9D9" fill-opacity="0.2"/>
<path d="M1354.98 256.806L1355.51 258.776L1357.48 259.306L1355.51 259.836L1354.98 261.806L1354.45 259.836L1352.48 259.306L1354.45 258.776L1354.98 256.806Z" fill="#D9D9D9" fill-opacity="0.2"/>
<path d="M1292.53 1064.23L1293.06 1066.19L1295.03 1066.73L1293.06 1067.26L1292.53 1069.23L1292 1067.26L1290.03 1066.73L1292 1066.19L1292.53 1064.23Z" fill="#D9D9D9" fill-opacity="0.2"/>
<path d="M1296.35 804.247L1296.88 806.217L1298.85 806.747L1296.88 807.278L1296.35 809.247L1295.82 807.278L1293.85 806.747L1295.82 806.217L1296.35 804.247Z" fill="#D9D9D9"/>
<path d="M249.787 54.594L250.317 56.5637L252.287 57.094L250.317 57.6243L249.787 59.594L249.256 57.6243L247.287 57.094L249.256 56.5637L249.787 54.594Z" fill="#D9D9D9" fill-opacity="0.2"/>
<path d="M1131.55 106.831L1132.08 108.801L1134.05 109.331L1132.08 109.862L1131.55 111.831L1131.02 109.862L1129.05 109.331L1131.02 108.801L1131.55 106.831Z" fill="#D9D9D9"/>
<path d="M1070.31 1089.85L1070.84 1091.81L1072.81 1092.35L1070.84 1092.88L1070.31 1094.85L1069.78 1092.88L1067.81 1092.35L1069.78 1091.81L1070.31 1089.85Z" fill="#D9D9D9" fill-opacity="0.2"/>
<path d="M1247.54 663.438L1248.07 665.408L1250.04 665.938L1248.07 666.468L1247.54 668.438L1247.01 666.468L1245.04 665.938L1247.01 665.408L1247.54 663.438Z" fill="#D9D9D9" fill-opacity="0.2"/>
<path d="M609.45 939.515L609.981 941.484L611.95 942.015L609.981 942.545L609.45 944.515L608.92 942.545L606.95 942.015L608.92 941.484L609.45 939.515Z" fill="#D9D9D9" fill-opacity="0.2"/>
<path d="M1527.84 1015.74L1528.37 1017.71L1530.34 1018.24L1528.37 1018.77L1527.84 1020.74L1527.31 1018.77L1525.34 1018.24L1527.31 1017.71L1527.84 1015.74Z" fill="#D9D9D9" fill-opacity="0.2"/>
<path d="M503.633 222.669L504.163 224.639L506.133 225.169L504.163 225.7L503.633 227.669L503.102 225.7L501.133 225.169L503.102 224.639L503.633 222.669Z" fill="#D9D9D9" fill-opacity="0.2"/>
<path d="M1095.11 241.445L1095.64 243.415L1097.61 243.945L1095.64 244.476L1095.11 246.445L1094.58 244.476L1092.61 243.945L1094.58 243.415L1095.11 241.445Z" fill="#D9D9D9"/>
<path d="M945.983 1097.53L946.513 1099.5L948.483 1100.03L946.513 1100.56L945.983 1102.53L945.453 1100.56L943.483 1100.03L945.453 1099.5L945.983 1097.53Z" fill="#D9D9D9" fill-opacity="0.2"/>
<path d="M1598.92 394.816L1599.45 396.785L1601.42 397.316L1599.45 397.846L1598.92 399.816L1598.38 397.846L1596.42 397.316L1598.38 396.785L1598.92 394.816Z" fill="#D9D9D9"/>
<path d="M1426.4 262.555L1426.93 264.525L1428.9 265.055L1426.93 265.586L1426.4 267.555L1425.87 265.586L1423.9 265.055L1425.87 264.525L1426.4 262.555Z" fill="#D9D9D9" fill-opacity="0.2"/>
<path d="M842.02 240.102L842.55 242.072L844.52 242.602L842.55 243.132L842.02 245.102L841.49 243.132L839.52 242.602L841.49 242.072L842.02 240.102Z" fill="#D9D9D9" fill-opacity="0.2"/>
<path d="M739.536 107.054L740.067 109.024L742.036 109.554L740.067 110.085L739.536 112.054L739.006 110.085L737.036 109.554L739.006 109.024L739.536 107.054Z" fill="#D9D9D9" fill-opacity="0.2"/>
<path d="M24.7626 630.961L25.2929 632.931L27.2626 633.461L25.2929 633.992L24.7626 635.961L24.2322 633.992L22.2626 633.461L24.2322 632.931L24.7626 630.961Z" fill="#D9D9D9" fill-opacity="0.2"/>
<path d="M610.107 998.873L610.637 1000.84L612.607 1001.37L610.637 1001.9L610.107 1003.87L609.577 1001.9L607.607 1001.37L609.577 1000.84L610.107 998.873Z" fill="#D9D9D9"/>
<path d="M719.271 4.29126L719.801 6.26093L721.771 6.79126L719.801 7.32159L719.271 9.29126L718.74 7.32159L716.771 6.79126L718.74 6.26093L719.271 4.29126Z" fill="#D9D9D9" fill-opacity="0.2"/>
<path d="M1425.29 1064.33L1425.82 1066.3L1427.79 1066.83L1425.82 1067.36L1425.29 1069.33L1424.76 1067.36L1422.79 1066.83L1424.76 1066.3L1425.29 1064.33Z" fill="#D9D9D9" fill-opacity="0.2"/>
<path d="M1267.7 1065.25L1268.23 1067.22L1270.2 1067.75L1268.23 1068.28L1267.7 1070.25L1267.17 1068.28L1265.2 1067.75L1267.17 1067.22L1267.7 1065.25Z" fill="#D9D9D9" fill-opacity="0.2"/>
<path d="M404.374 86.0828L404.904 88.0524L406.874 88.5828L404.904 89.1131L404.374 91.0828L403.844 89.1131L401.874 88.5828L403.844 88.0524L404.374 86.0828Z" fill="#D9D9D9"/>
<path d="M970.581 575.751L971.111 577.721L973.081 578.251L971.111 578.781L970.581 580.751L970.05 578.781L968.081 578.251L970.05 577.721L970.581 575.751Z" fill="#D9D9D9" fill-opacity="0.2"/>
<path d="M1180.25 876.977L1180.78 878.947L1182.75 879.477L1180.78 880.008L1180.25 881.977L1179.72 880.008L1177.75 879.477L1179.72 878.947L1180.25 876.977Z" fill="#D9D9D9" fill-opacity="0.2"/>
<path d="M339.758 89.7405L340.288 91.7101L342.258 92.2405L340.288 92.7708L339.758 94.7405L339.227 92.7708L337.258 92.2405L339.227 91.7101L339.758 89.7405Z" fill="#D9D9D9" fill-opacity="0.2"/>
<path d="M739.664 1026.04L740.195 1028.01L742.164 1028.54L740.195 1029.07L739.664 1031.04L739.134 1029.07L737.164 1028.54L739.134 1028.01L739.664 1026.04Z" fill="#D9D9D9" fill-opacity="0.2"/>
<path d="M356 644.358L356.53 646.328L358.5 646.858L356.53 647.388L356 649.358L355.47 647.388L353.5 646.858L355.47 646.328L356 644.358Z" fill="#D9D9D9" fill-opacity="0.2"/>
<path d="M663.077 219.707L663.607 221.676L665.577 222.207L663.607 222.737L663.077 224.707L662.546 222.737L660.577 222.207L662.546 221.676L663.077 219.707Z" fill="#D9D9D9" fill-opacity="0.2"/>
<path d="M902.067 190.29L902.598 192.26L904.567 192.79L902.598 193.32L902.067 195.29L901.537 193.32L899.567 192.79L901.537 192.26L902.067 190.29Z" fill="#D9D9D9" fill-opacity="0.2"/>
<path d="M548.938 106.177L549.469 108.147L551.438 108.677L549.469 109.208L548.938 111.177L548.408 109.208L546.438 108.677L548.408 108.147L548.938 106.177Z" fill="#D9D9D9"/>
<path d="M1183.38 386.649L1183.91 388.618L1185.88 389.149L1183.91 389.679L1183.38 391.649L1182.85 389.679L1180.88 389.149L1182.85 388.618L1183.38 386.649Z" fill="#D9D9D9"/>
<path d="M1261.86 1030.65L1262.39 1032.62L1264.36 1033.15L1262.39 1033.68L1261.86 1035.65L1261.33 1033.68L1259.36 1033.15L1261.33 1032.62L1261.86 1030.65Z" fill="#D9D9D9" fill-opacity="0.2"/>
<path d="M544.364 382.582L544.894 384.551L546.864 385.082L544.894 385.612L544.364 387.582L543.833 385.612L541.864 385.082L543.833 384.551L544.364 382.582Z" fill="#D9D9D9" fill-opacity="0.2"/>
<path d="M1257.92 676.154L1258.45 678.124L1260.42 678.654L1258.45 679.184L1257.92 681.154L1257.39 679.184L1255.42 678.654L1257.39 678.124L1257.92 676.154Z" fill="#D9D9D9" fill-opacity="0.2"/>
<path d="M218.735 763.113L219.265 765.082L221.235 765.613L219.265 766.143L218.735 768.113L218.204 766.143L216.235 765.613L218.204 765.082L218.735 763.113Z" fill="#D9D9D9" fill-opacity="0.2"/>
<path d="M249.069 102.665L249.599 104.635L251.569 105.165L249.599 105.695L249.069 107.665L248.539 105.695L246.569 105.165L248.539 104.635L249.069 102.665Z" fill="#D9D9D9" fill-opacity="0.2"/>
<path d="M310.77 1016.36L311.3 1018.33L313.27 1018.86L311.3 1019.39L310.77 1021.36L310.24 1019.39L308.27 1018.86L310.24 1018.33L310.77 1016.36Z" fill="#D9D9D9" fill-opacity="0.2"/>
<path d="M164.61 985.429L165.141 987.399L167.11 987.929L165.141 988.46L164.61 990.429L164.08 988.46L162.11 987.929L164.08 987.399L164.61 985.429Z" fill="#D9D9D9" fill-opacity="0.2"/>
<path d="M549.282 741.364L549.812 743.334L551.782 743.864L549.812 744.395L549.282 746.364L548.751 744.395L546.782 743.864L548.751 743.334L549.282 741.364Z" fill="#D9D9D9" fill-opacity="0.2"/>
<path d="M292.313 431.456L292.844 433.425L294.813 433.956L292.844 434.486L292.313 436.456L291.783 434.486L289.813 433.956L291.783 433.425L292.313 431.456Z" fill="#D9D9D9"/>
<path d="M1456.58 604.1L1457.11 606.07L1459.08 606.6L1457.11 607.131L1456.58 609.1L1456.05 607.131L1454.08 606.6L1456.05 606.07L1456.58 604.1Z" fill="#D9D9D9" fill-opacity="0.2"/>
<path d="M306.649 739.014L307.18 740.983L309.149 741.514L307.18 742.044L306.649 744.014L306.119 742.044L304.149 741.514L306.119 740.983L306.649 739.014Z" fill="#808080"/>
<path d="M570.46 464.497L570.99 466.466L572.96 466.997L570.99 467.527L570.46 469.497L569.929 467.527L567.96 466.997L569.929 466.466L570.46 464.497Z" fill="#D9D9D9" fill-opacity="0.2"/>
<path d="M1611.42 377.384L1611.95 379.354L1613.92 379.884L1611.95 380.414L1611.42 382.384L1610.89 380.414L1608.92 379.884L1610.89 379.354L1611.42 377.384Z" fill="#D9D9D9" fill-opacity="0.2"/>
<path d="M1110.84 373.572L1111.37 375.542L1113.34 376.072L1111.37 376.603L1110.84 378.572L1110.31 376.603L1108.34 376.072L1110.31 375.542L1110.84 373.572Z" fill="#D9D9D9" fill-opacity="0.2"/>
<path d="M49.0437 461.36L49.574 463.33L51.5437 463.86L49.574 464.391L49.0437 466.36L48.5134 464.391L46.5437 463.86L48.5134 463.33L49.0437 461.36Z" fill="#D9D9D9" fill-opacity="0.2"/>
<path d="M1397.52 0.863281L1398.05 2.83295L1400.02 3.36328L1398.05 3.89361L1397.52 5.86328L1396.99 3.89361L1395.02 3.36328L1396.99 2.83295L1397.52 0.863281Z" fill="#D9D9D9" fill-opacity="0.2"/>
<path d="M991.1 271.298L991.63 273.268L993.6 273.798L991.63 274.328L991.1 276.298L990.57 274.328L988.6 273.798L990.57 273.268L991.1 271.298Z" fill="#D9D9D9" fill-opacity="0.2"/>
<path d="M429.724 756.822L430.254 758.791L432.224 759.322L430.254 759.852L429.724 761.822L429.194 759.852L427.224 759.322L429.194 758.791L429.724 756.822Z" fill="#D9D9D9" fill-opacity="0.2"/>
<path d="M380.833 167.626L381.364 169.596L383.333 170.126L381.364 170.657L380.833 172.626L380.303 170.657L378.333 170.126L380.303 169.596L380.833 167.626Z" fill="#D9D9D9" fill-opacity="0.2"/>
<path d="M889.044 830.008L889.574 831.977L891.544 832.508L889.574 833.038L889.044 835.008L888.513 833.038L886.544 832.508L888.513 831.977L889.044 830.008Z" fill="#D9D9D9" fill-opacity="0.2"/>
<path d="M1264.65 51.0598L1265.18 53.0295L1267.15 53.5598L1265.18 54.0901L1264.65 56.0598L1264.12 54.0901L1262.15 53.5598L1264.12 53.0295L1264.65 51.0598Z" fill="#D9D9D9"/>
<path d="M1486.6 862.743L1487.13 864.713L1489.1 865.243L1487.13 865.774L1486.6 867.743L1486.07 865.774L1484.1 865.243L1486.07 864.713L1486.6 862.743Z" fill="#D9D9D9" fill-opacity="0.2"/>
<path d="M494.87 1089.22L495.4 1091.19L497.37 1091.72L495.4 1092.25L494.87 1094.22L494.34 1092.25L492.37 1091.72L494.34 1091.19L494.87 1089.22Z" fill="#D9D9D9" fill-opacity="0.2"/>
<path d="M795.755 445.887L796.285 447.857L798.255 448.387L796.285 448.918L795.755 450.887L795.225 448.918L793.255 448.387L795.225 447.857L795.755 445.887Z" fill="#D9D9D9" fill-opacity="0.2"/>
<path d="M303.59 423.053L304.121 425.022L306.09 425.553L304.121 426.083L303.59 428.053L303.06 426.083L301.09 425.553L303.06 425.022L303.59 423.053Z" fill="#D9D9D9" fill-opacity="0.2"/>
<path d="M84.9523 663.316L85.4826 665.286L87.4523 665.816L85.4826 666.347L84.9523 668.316L84.4219 666.347L82.4523 665.816L84.4219 665.286L84.9523 663.316Z" fill="#D9D9D9" fill-opacity="0.2"/>
<path d="M606.142 757.732L606.672 759.702L608.642 760.232L606.672 760.762L606.142 762.732L605.612 760.762L603.642 760.232L605.612 759.702L606.142 757.732Z" fill="#D9D9D9" fill-opacity="0.2"/>
<path d="M213.716 27.8147L214.246 29.7844L216.216 30.3147L214.246 30.845L213.716 32.8147L213.185 30.845L211.216 30.3147L213.185 29.7844L213.716 27.8147Z" fill="#D9D9D9" fill-opacity="0.2"/>
<path d="M226.263 913.553L226.793 915.523L228.763 916.053L226.793 916.584L226.263 918.553L225.733 916.584L223.763 916.053L225.733 915.523L226.263 913.553Z" fill="#D9D9D9"/>
<path d="M180.801 748.114L181.331 750.084L183.301 750.614L181.331 751.144L180.801 753.114L180.27 751.144L178.301 750.614L180.27 750.084L180.801 748.114Z" fill="#D9D9D9"/>
<path d="M143.246 884.441L143.776 886.411L145.746 886.941L143.776 887.471L143.246 889.441L142.716 887.471L140.746 886.941L142.716 886.411L143.246 884.441Z" fill="#D9D9D9" fill-opacity="0.2"/>
<path d="M1503.58 60.2429L1504.11 62.2126L1506.08 62.7429L1504.11 63.2733L1503.58 65.2429L1503.05 63.2733L1501.08 62.7429L1503.05 62.2126L1503.58 60.2429Z" fill="#D9D9D9" fill-opacity="0.2"/>
<path d="M692.222 369.209L692.752 371.179L694.722 371.709L692.752 372.24L692.222 374.209L691.692 372.24L689.722 371.709L691.692 371.179L692.222 369.209Z" fill="#D9D9D9" fill-opacity="0.2"/>
<path d="M818.468 533.878L818.998 535.847L820.968 536.378L818.998 536.908L818.468 538.878L817.937 536.908L815.968 536.378L817.937 535.847L818.468 533.878Z" fill="#808080"/>
<path d="M488.787 257.268L489.317 259.237L491.287 259.768L489.317 260.298L488.787 262.268L488.257 260.298L486.287 259.768L488.257 259.237L488.787 257.268Z" fill="#D9D9D9" fill-opacity="0.2"/>
<path d="M71.2479 376.768L71.7783 378.737L73.7479 379.268L71.7783 379.798L71.2479 381.768L70.7176 379.798L68.7479 379.268L70.7176 378.737L71.2479 376.768Z" fill="#D9D9D9" fill-opacity="0.2"/>
<path d="M1432.34 880.05L1432.87 882.02L1434.84 882.55L1432.87 883.081L1432.34 885.05L1431.81 883.081L1429.84 882.55L1431.81 882.02L1432.34 880.05Z" fill="#808080"/>
<path d="M799.497 714.631L800.027 716.601L801.997 717.131L800.027 717.662L799.497 719.631L798.966 717.662L796.997 717.131L798.966 716.601L799.497 714.631Z" fill="#D9D9D9" fill-opacity="0.2"/>
<path d="M1168.08 404.046L1168.61 406.015L1170.58 406.546L1168.61 407.076L1168.08 409.046L1167.55 407.076L1165.58 406.546L1167.55 406.015L1168.08 404.046Z" fill="#D9D9D9" fill-opacity="0.2"/>
<path d="M1687.42 628.464L1687.95 630.434L1689.92 630.964L1687.95 631.494L1687.42 633.464L1686.89 631.494L1684.92 630.964L1686.89 630.434L1687.42 628.464Z" fill="#D9D9D9" fill-opacity="0.2"/>
<path d="M1382.72 536.158L1383.25 538.127L1385.22 538.658L1383.25 539.188L1382.72 541.158L1382.19 539.188L1380.22 538.658L1382.19 538.127L1382.72 536.158Z" fill="#D9D9D9" fill-opacity="0.2"/>
<path d="M457.382 453.159L457.912 455.129L459.882 455.659L457.912 456.19L457.382 458.159L456.852 456.19L454.882 455.659L456.852 455.129L457.382 453.159Z" fill="#D9D9D9"/>
<path d="M820.298 281.802L820.829 283.772L822.798 284.302L820.829 284.833L820.298 286.802L819.768 284.833L817.798 284.302L819.768 283.772L820.298 281.802Z" fill="#D9D9D9"/>
<path d="M1047.97 449.588L1048.5 451.557L1050.47 452.088L1048.5 452.618L1047.97 454.588L1047.44 452.618L1045.47 452.088L1047.44 451.557L1047.97 449.588Z" fill="#D9D9D9" fill-opacity="0.2"/>
<path d="M742.38 514.878L742.91 516.847L744.88 517.378L742.91 517.908L742.38 519.878L741.85 517.908L739.88 517.378L741.85 516.847L742.38 514.878Z" fill="#D9D9D9" fill-opacity="0.2"/>
<path d="M84.5938 411.691L85.1241 413.661L87.0938 414.191L85.1241 414.722L84.5938 416.691L84.0634 414.722L82.0938 414.191L84.0634 413.661L84.5938 411.691Z" fill="#D9D9D9" fill-opacity="0.2"/>
<path d="M932.763 857.89L933.293 859.859L935.263 860.39L933.293 860.92L932.763 862.89L932.232 860.92L930.263 860.39L932.232 859.859L932.763 857.89Z" fill="#D9D9D9" fill-opacity="0.2"/>
<path d="M1477.22 801.181L1477.75 803.151L1479.72 803.681L1477.75 804.212L1477.22 806.181L1476.69 804.212L1474.72 803.681L1476.69 803.151L1477.22 801.181Z" fill="#D9D9D9"/>
<path d="M1140.56 1013.23L1141.09 1015.2L1143.06 1015.73L1141.09 1016.26L1140.56 1018.23L1140.03 1016.26L1138.06 1015.73L1140.03 1015.2L1140.56 1013.23Z" fill="#D9D9D9" fill-opacity="0.2"/>
<path d="M106.259 507.953L106.789 509.923L108.759 510.453L106.789 510.984L106.259 512.953L105.729 510.984L103.759 510.453L105.729 509.923L106.259 507.953Z" fill="#808080"/>
<path d="M1669.03 798.893L1669.56 800.862L1671.53 801.393L1669.56 801.923L1669.03 803.893L1668.5 801.923L1666.53 801.393L1668.5 800.862L1669.03 798.893Z" fill="#D9D9D9" fill-opacity="0.2"/>
<path d="M1232.67 1087.98L1233.2 1089.95L1235.17 1090.48L1233.2 1091.01L1232.67 1092.98L1232.14 1091.01L1230.17 1090.48L1232.14 1089.95L1232.67 1087.98Z" fill="#D9D9D9"/>
<path d="M1182.57 1047.02L1183.1 1048.99L1185.07 1049.52L1183.1 1050.05L1182.57 1052.02L1182.04 1050.05L1180.07 1049.52L1182.04 1048.99L1182.57 1047.02Z" fill="#D9D9D9"/>
<path d="M650.935 98.2471L651.465 100.217L653.435 100.747L651.465 101.277L650.935 103.247L650.404 101.277L648.435 100.747L650.404 100.217L650.935 98.2471Z" fill="#D9D9D9" fill-opacity="0.2"/>
<path d="M1588.49 1073.4L1589.02 1075.37L1590.99 1075.9L1589.02 1076.43L1588.49 1078.4L1587.96 1076.43L1585.99 1075.9L1587.96 1075.37L1588.49 1073.4Z" fill="#D9D9D9" fill-opacity="0.2"/>
<path d="M212.025 686.542L212.555 688.511L214.525 689.042L212.555 689.572L212.025 691.542L211.494 689.572L209.525 689.042L211.494 688.511L212.025 686.542Z" fill="#D9D9D9" fill-opacity="0.2"/>
<path d="M863.914 1076.71L864.444 1078.68L866.414 1079.21L864.444 1079.74L863.914 1081.71L863.383 1079.74L861.414 1079.21L863.383 1078.68L863.914 1076.71Z" fill="#D9D9D9"/>
<path d="M362.786 554.877L363.316 556.847L365.286 557.377L363.316 557.908L362.786 559.877L362.255 557.908L360.286 557.377L362.255 556.847L362.786 554.877Z" fill="#D9D9D9" fill-opacity="0.2"/>
<path d="M479.043 106.26L479.574 108.23L481.543 108.76L479.574 109.291L479.043 111.26L478.513 109.291L476.543 108.76L478.513 108.23L479.043 106.26Z" fill="#D9D9D9" fill-opacity="0.2"/>
<path d="M476.167 176.558L476.697 178.528L478.667 179.058L476.697 179.588L476.167 181.558L475.636 179.588L473.667 179.058L475.636 178.528L476.167 176.558Z" fill="#D9D9D9" fill-opacity="0.2"/>
<path d="M506.94 119.692L507.47 121.662L509.44 122.192L507.47 122.723L506.94 124.692L506.409 122.723L504.44 122.192L506.409 121.662L506.94 119.692Z" fill="#D9D9D9" fill-opacity="0.2"/>
<path d="M644.882 802.67L645.413 804.64L647.382 805.17L645.413 805.7L644.882 807.67L644.352 805.7L642.382 805.17L644.352 804.64L644.882 802.67Z" fill="#808080"/>
<path d="M665.568 493.13L666.098 495.1L668.068 495.63L666.098 496.16L665.568 498.13L665.037 496.16L663.068 495.63L665.037 495.1L665.568 493.13Z" fill="#D9D9D9"/>
<path d="M1513.29 844.857L1513.82 846.827L1515.79 847.357L1513.82 847.888L1513.29 849.857L1512.76 847.888L1510.79 847.357L1512.76 846.827L1513.29 844.857Z" fill="#D9D9D9" fill-opacity="0.2"/>
<path d="M1064.98 137.777L1065.51 139.747L1067.48 140.277L1065.51 140.808L1064.98 142.777L1064.45 140.808L1062.48 140.277L1064.45 139.747L1064.98 137.777Z" fill="#D9D9D9"/>
<path d="M293.663 903.387L294.193 905.357L296.163 905.887L294.193 906.418L293.663 908.387L293.133 906.418L291.163 905.887L293.133 905.357L293.663 903.387Z" fill="#D9D9D9" fill-opacity="0.2"/>
<path d="M193.136 1091.15L193.666 1093.12L195.636 1093.65L193.666 1094.18L193.136 1096.15L192.605 1094.18L190.636 1093.65L192.605 1093.12L193.136 1091.15Z" fill="#D9D9D9" fill-opacity="0.2"/>
<path d="M1235.56 1029.05L1236.09 1031.02L1238.06 1031.55L1236.09 1032.08L1235.56 1034.05L1235.03 1032.08L1233.06 1031.55L1235.03 1031.02L1235.56 1029.05Z" fill="#D9D9D9" fill-opacity="0.2"/>
<path d="M1336.16 564.443L1336.69 566.413L1338.66 566.943L1336.69 567.473L1336.16 569.443L1335.63 567.473L1333.66 566.943L1335.63 566.413L1336.16 564.443Z" fill="#D9D9D9" fill-opacity="0.2"/>
<path d="M369.799 1073.51L370.33 1075.48L372.299 1076.01L370.33 1076.55L369.799 1078.51L369.269 1076.55L367.299 1076.01L369.269 1075.48L369.799 1073.51Z" fill="#D9D9D9" fill-opacity="0.2"/>
<path d="M34.5703 706.586L35.1006 708.556L37.0703 709.086L35.1006 709.617L34.5703 711.586L34.04 709.617L32.0703 709.086L34.04 708.556L34.5703 706.586Z" fill="#D9D9D9" fill-opacity="0.2"/>
<path d="M18.7933 543.613L19.3237 545.583L21.2933 546.113L19.3237 546.644L18.7933 548.613L18.263 546.644L16.2933 546.113L18.263 545.583L18.7933 543.613Z" fill="#D9D9D9" fill-opacity="0.2"/>
<path d="M793.734 348.955L794.265 350.924L796.234 351.455L794.265 351.985L793.734 353.955L793.204 351.985L791.234 351.455L793.204 350.924L793.734 348.955Z" fill="#D9D9D9" fill-opacity="0.2"/>
<path d="M1610.01 932.165L1610.54 934.135L1612.51 934.665L1610.54 935.196L1610.01 937.165L1609.48 935.196L1607.51 934.665L1609.48 934.135L1610.01 932.165Z" fill="#D9D9D9" fill-opacity="0.2"/>
<path d="M1064.44 57.2073L1064.97 59.1769L1066.94 59.7073L1064.97 60.2376L1064.44 62.2073L1063.91 60.2376L1061.94 59.7073L1063.91 59.1769L1064.44 57.2073Z" fill="#D9D9D9" fill-opacity="0.2"/>
<path d="M1321.19 733.787L1321.72 735.757L1323.69 736.287L1321.72 736.817L1321.19 738.787L1320.66 736.817L1318.69 736.287L1320.66 735.757L1321.19 733.787Z" fill="#D9D9D9" fill-opacity="0.2"/>
<path d="M112.244 24.3855L112.774 26.3552L114.744 26.8855L112.774 27.4158L112.244 29.3855L111.714 27.4158L109.744 26.8855L111.714 26.3552L112.244 24.3855Z" fill="#D9D9D9" fill-opacity="0.2"/>
<path d="M1337.67 123.86L1338.2 125.83L1340.17 126.36L1338.2 126.89L1337.67 128.86L1337.14 126.89L1335.17 126.36L1337.14 125.83L1337.67 123.86Z" fill="#D9D9D9" fill-opacity="0.2"/>
<path d="M1610.38 571.426L1610.91 573.396L1612.88 573.926L1610.91 574.456L1610.38 576.426L1609.85 574.456L1607.88 573.926L1609.85 573.396L1610.38 571.426Z" fill="#D9D9D9" fill-opacity="0.2"/>
<path d="M1560.06 1013.38L1560.6 1015.35L1562.56 1015.88L1560.6 1016.41L1560.06 1018.38L1559.53 1016.41L1557.56 1015.88L1559.53 1015.35L1560.06 1013.38Z" fill="#D9D9D9" fill-opacity="0.2"/>
<path d="M1014.29 875.772L1014.82 877.742L1016.79 878.272L1014.82 878.802L1014.29 880.772L1013.76 878.802L1011.79 878.272L1013.76 877.742L1014.29 875.772Z" fill="#D9D9D9"/>
</svg>
