<svg width="44" height="37" viewBox="0 0 44 37" fill="none" xmlns="http://www.w3.org/2000/svg">
<path d="M42.7584 5.50394C41.229 6.18166 39.586 6.63958 37.8587 6.84656C39.6208 5.79151 40.9725 4.11735 41.61 2.12448C39.9615 3.1026 38.1353 3.81329 36.1918 4.19428C34.6349 2.53844 32.4186 1.50171 29.9641 1.50171C25.253 1.50171 21.4321 5.3226 21.4321 10.0374C21.4321 10.7041 21.5091 11.3525 21.6519 11.9789C14.5578 11.6218 8.27332 8.22399 4.06411 3.0623C3.33143 4.32617 2.91014 5.79151 2.91014 7.35211C2.91014 10.3121 4.41762 12.9259 6.70539 14.4554C5.30599 14.4096 3.99084 14.0268 2.84054 13.3875V13.4974C2.84054 17.6315 5.78039 21.0806 9.68554 21.8645C8.96752 22.0587 8.2147 22.1613 7.43807 22.1613C6.88856 22.1613 6.35188 22.11 5.83168 22.0111C6.91787 25.3997 10.0684 27.8688 13.8032 27.9347C10.8816 30.2243 7.20178 31.5889 3.20505 31.5889C2.51633 31.5889 1.83678 31.5487 1.16821 31.4699C4.94515 33.8932 9.42911 35.3036 14.2464 35.3036C29.944 35.3036 38.5254 22.3023 38.5254 11.0265C38.5254 10.6601 38.5163 10.2901 38.4998 9.92379C40.1666 8.71854 41.6136 7.2184 42.7548 5.50943L42.7584 5.50394Z" stroke="white" stroke-width="1.55963" stroke-linejoin="round"/>
</svg>
